<svg id="e4324059-2da8-41b6-813a-2e6005413699" data-name="Capa 1" xmlns="http://www.w3.org/2000/svg" viewBox="0 0 1149.82 858.26"><path d="M247.66,147.56c.58,6.08.94,13.2,1.12,21.35.24,6.58.57,12.91,1,19a81.71,81.71,0,0,0,2.35,15.19q1.23,4.45,1.58,19.35t-.1,29.93q-.45,15-1.36,19.73a53.8,53.8,0,0,0-1,12.08,53.09,53.09,0,0,1-.57,11.62l-.64,4.15c-2.78,5.59-6.7,13.26-8.71,17.06l-1.21,2.8a49,49,0,0,1-5.49,9.8l-2.12,2.89a77.21,77.21,0,0,1-16,7.26l-8.7,1.5q-13,2.27-29.77,4.31t-30.73,2.79l-9.33.52a122.45,122.45,0,0,0-15.31-1l-2.51.09a55.81,55.81,0,0,0-7.69.81,12.45,12.45,0,0,1-7-.83q-12,.61-16-6.44t-4-18.19q-.27-12,.23-23.73a296.1,296.1,0,0,0,0-29.66q-.47-8.07-.28-18c.45-14.15.13-16.49.13-16.49C84,224.08,82,209.1,81.16,202.23L81,189q-.27-19.85-.26-40-.1-17.79-.21-26l-.17-4.67q0-5.22-.29-10.77l-.2-3.71c-.81-3-2.7-10.28-4.2-16.24l2.42-2.9Q81.71,80.32,89.93,79A157.77,157.77,0,0,1,108,77.4,106.68,106.68,0,0,0,131.12,75q6.94-1.86,25.37-1.8T193,75.09Q211.18,77,217.23,80.7a96.91,96.91,0,0,0,10.12,6.47,23.32,23.32,0,0,1,3.87,2.73,10.2,10.2,0,0,1,2.28,3.61l.67,1.59c1,3.38,2.26,7.63,2.85,9.45l.55,2,.4,1.06c.33,1.18,2.32,7.76,4.41,14.64l1.53,5.82A166.42,166.42,0,0,1,247.66,147.56ZM177.5,304.81q6.51-2.21,9.64-19.31t3.45-41.82q.33-24.72-1.42-49.65t-4.73-42.43l-2-11.67c-2.51-4.82-7.56-11.13-11.23-14l-1.23-2a10.51,10.51,0,0,0-3.58-3.28q-2-1-6.94,0T144,124.83a157.25,157.25,0,0,0,.5,28.74,227.82,227.82,0,0,1,.5,38.08,368,368,0,0,0-1.27,47.23c.52,17.9,1.76,25.55,1.76,25.55,1.85,11.4,4.15,25.47,5.12,31.27l-.22,3.6q-.16,5,1.12,7.24t7,1.72A157.76,157.76,0,0,0,177.5,304.81Z" fill="#081a2b"/><path d="M359.3,289.63c-.21,4.09-.31,7.33-.28,9.72a34.85,34.85,0,0,0,.8,7.17c.5,2.37,1.23,5.52,2.22,9.44.68,2.49,1.33,5.43,1.93,8.82a48.63,48.63,0,0,1,.86,8.87q-.72,5.6-12.88,9.54a122,122,0,0,1-28.12,5.14,107.31,107.31,0,0,1-28.17-1.16q-12.21-2.35-13-9.51-.07-7-.44-22.27A89.84,89.84,0,0,0,280.94,305c-.44-2.62-.79-5.49-1-8.59a12.58,12.58,0,0,1,.09-2.34,11.28,11.28,0,0,1,.48-1.81c.1-.48.2-1,.31-1.55a10.43,10.43,0,0,0,.1-2.24,39.82,39.82,0,0,0-.66-5.65c-.37-2.07-.77-3.95-1.18-5.61l-.43-1.9c-.14-1.22-.09,7.24.11,18.78l.31,17.64c.21,11.55.32,19.2.26,17l-.1-4.37c-.09-4.36-.21-9.18-.33-14.46s-.21-9.88-.23-13.82l-.12-3.42q.11-2,.5-6.13.62-7.56.8-23,0-4.14.41-8.46a96.77,96.77,0,0,0,.09-12.95l-.44-5.5c-1.23-4.83-2-10.19-1.75-11.91l.78-1.59a11.58,11.58,0,0,0,1.28-4.54q-.36-15.45-1.09-30.69l-.09-2.51-.1-2.79q-.07-2.06,0-4l.08-1.26c.31-.65,3.56-3.17,7.23-5.59l2.84-.88a50.32,50.32,0,0,1,9.11-1.85q3.21-.47,7-1.15A94.24,94.24,0,0,1,318.76,166a61.32,61.32,0,0,1,9.37.39l2.77.38c4.72.36,9.45.65,10.5.64l1,.09a27.5,27.5,0,0,1,9,1q4,1.2,6.87,5.95l1.76,5.69c-.43,6.44-1,14.34-1.35,17.54v3l.22,6.28q.17,4.48-.06,8.63a66.12,66.12,0,0,1-1.43,9.94q-.61,3.25-1,6.05a37.9,37.9,0,0,0-.23,6,50.47,50.47,0,0,0,.95,6.62,29.94,29.94,0,0,1,.86,9c-.3,4.81-.5,9.61-.57,14.4a59.23,59.23,0,0,0,.95,6.08,35.39,35.39,0,0,1,.82,7.88,65.28,65.28,0,0,1-1,8.12,99.39,99.39,0,0,0-.89,10.28q.36,20.12,1.74,36.33c.93,10.82-.75-49.31-.75-49.31-.32-11.55-.24-19.32.18-17.28l.29,3.17c.29,3.16.47,6.33.52,9.51S359.36,288,359.3,289.63ZM330.8,64.8A59,59,0,0,1,338,64l4.8,2.17A54,54,0,0,1,356,74.52q5.93,5.08,6.43,9.2a21.91,21.91,0,0,1-3.78,12.36,69.38,69.38,0,0,1-8.34,10.54,68.08,68.08,0,0,0-7.37,10l-2.25,4.15c-4.55,4.44-10.42,9.83-13,12l-1.44,1.37q-2.18,2.05-4.43,4.47c-1,1.23-2.42,2.72-4.15,4.46a20.18,20.18,0,0,1-6,4.61,10.09,10.09,0,0,1-6.38.15q-6.33-1.22-9.55-3.44l-2.15-1.48c-1.23-4.34-2.12-8.91-2-10.15l.6-1.64a49.42,49.42,0,0,1,2.24-5.1l.9-1.77c.8-1.4,1.5-2.64,1.55-2.76s1.14-2.42,2.45-5l.73-1.58.72-1.58c1-2.54,3.36-7.53,5.21-11.09l1.72-2a33.73,33.73,0,0,0,4.09-6.61c.88-2.2,2.18-5,3.91-8.51a33.94,33.94,0,0,1,4.86-7.63,35.6,35.6,0,0,0,3.76-5.16l1.23-2.56C328.1,67.19,330.5,65,330.8,64.8Z" fill="#081a2b"/><path d="M595.62,278.4c-.09,4.19-.1,7.52,0,10a44.31,44.31,0,0,0,.9,7.43q.76,3.75,2.23,9.81,1,3.74,2,8.91l.66,3.45c.26,3.12-1.15,8.75-3.15,12.52l-4.76,2.44a60.57,60.57,0,0,1-15.71,5.41,53.82,53.82,0,0,1-13.62,1.39q-3.78-.23-10.91-1.14a65.67,65.67,0,0,1-13.41-3.12q-6.29-2.21-7.52-6.47A128.42,128.42,0,0,1,531,314.85l-.2-5.5c-.58-5.05-1.1-9.54-1.17-10s-.44-3-.81-5.09l0-1.38,0-1.37a57.3,57.3,0,0,0,.63-8.35l-.41-3c-.41-3-.93-9.34-1.57-18.91l-.65-9.56c-1.15-10.6-2.17-21-2.26-23.16l-.21-4.2q-.32-6.27-.59-14.08l-.5-14.1,0-1.07c0-1-1.29,5.4-2.79,14.18L519,217.33l-1.1,6.38c-1.19,7.13-2.48,15.42-2.87,18.44l-.57,4.1q-1,8.3-2.37,16.7c-.94,5.6-2,9.57-3.09,11.88a8.92,8.92,0,0,1-5.84,4.89,29.22,29.22,0,0,1-8,.63l-5,.18a18.36,18.36,0,0,1-2.69.28c-3.46.37-7.17.59-11.11.67l-4,.08c-3.5-1.08-7.42-3.15-8.73-4.6l-1.05-2.54-1-2.54c-.85-2.65-1.65-5.09-1.78-5.41s-1.7-5.14-3.32-10L455,252.14q-1.63-5.34-2.68-9.43c-.68-2.49-1.43-5.08-2.25-7.74l-.81-2.67c-1.52-3.85-5.42-14.08-8.66-22.72s-10-33.2-10.23-33.91-.65-2.45-.64-2.26-.12,3.61-.29,7.15l.11,3.1q.85,19,2.14,35t2.15,19.87a52.15,52.15,0,0,1,.77,6.45q.35,4.47.59,9c.17,3,.21,5.26.16,6.82q0,5.58,1.54,20.61t2,18.36l.31,2.21c.6,3.65,1.15,7.07,1.24,7.59s1.16,7.69,2.2,14.75l-1.3,3.94Q439.44,334.11,426,336a87.26,87.26,0,0,1-10.92.93,40.47,40.47,0,0,1-12.91-1.52l-4.06-1.17a31,31,0,0,1-4.55-11.52L393,315.1q-.86-11.48-4.49-47.83l-.58-9.56c-.48-6.08-1.13-15.09-1.46-20s-.67-10.85-.76-13.15l-.24-4.78q-.35-7.19-.72-15.25t-.56-13.1c-.05-1.32-.05-3.3,0-5.94q.1-7-.4-21.37-.13-3.76-.1-7.91.12-6.28-.25-12l-.34-2.62c-.35-2.49-1.33-9.6-2.18-15.8l.73-6.49q0-4.14-.59-11.49-.65-7.89-.55-15.44l.06-5c1.45-2.91,6.64-7.74,11.54-10.71L398,74.8,403.94,73c5.78-.73,10.66-1.33,10.86-1.34l8.26-.44,5-.13a76.39,76.39,0,0,1,14.51,1l4.64.79c2.93,2.13,5.93,5,6.66,6.32l.8,2.07q1.19,3.1,2.41,7l1.22,4c1.4,3.45,4.49,11.29,6.85,17.43l.78,5c.57,2.62,1.27,5.46,2.1,8.55a21.66,21.66,0,0,0,2.13,4.42,36.18,36.18,0,0,1,2.74,6c.55,2.13,1.06,4.45,1.5,6.95l.58,2.86c.84,3,4.25,12.88,7.58,21.89l3,7.2,2.95,7.21c2.4,5.09,6,1.94,7.92-7l2.22-8.59c3.88-15.48,5.51-26.62,5.51-26.62,1.68-11.42,3.48-23,4-25.78l.75-2.42.86-2.79c.73-3.56,1.52-7.33,1.74-8.39l.18-1.69c.36-3.37.87-7.45,1.54-12.27s1.4-9.28,2.22-13.39,1.56-6.64,2.24-7.62A4.36,4.36,0,0,1,519.51,62a4.07,4.07,0,0,1,1.71-.06l1.53-.06.54,0c.73-.32,7-2.24,14-4.27l6.49.49c2.39,0,4.91,0,7.54-.09a86.45,86.45,0,0,1,10-.09A122.31,122.31,0,0,1,573.78,59l4.09.58c2.65,1.29,7.19,5.48,10.09,9.31l.56,5.31a98.72,98.72,0,0,1,.38,15.72,53.1,53.1,0,0,0-.15,5.93l.08,2.16c.25,3.82.35,7.24.27,10.23a99.89,99.89,0,0,1-1,10.82c-.4,2.29-.68,4.37-.86,6.23a34.86,34.86,0,0,0,0,6.2,52.14,52.14,0,0,0,1,6.8,35.87,35.87,0,0,1,1.05,9.13q-.45,7.38-.19,14.92a28.54,28.54,0,0,0,1,6.26,46.39,46.39,0,0,1,1,8.05c-.14,2.76-.34,5.65-.59,8.65a51.85,51.85,0,0,0-.71,10.45q.72,20.12,2.49,37t2.6,30Q595.7,275.87,595.62,278.4Z" fill="#081a2b"/><path d="M761.08,64c.46,2.35-.22,13.67-1.51,25.15,0,0-1.65,14.74-5,14.26q-3.79-.23-24.26.33-2.14-.1-11.56-1.57t-9.83-1a10.71,10.71,0,0,0-1.11,1.56c-.55,1.22-2.28,3.5-5.15,6.84a17.3,17.3,0,0,0-4,8.68,82.77,82.77,0,0,0-.27,12.68,69.65,69.65,0,0,1,.25,7.17q-.21,4.33-1,12.62l-.36,3.26c-.45,4.95,7.4,9.67,17.45,10.49l13.42.18q20.13.27,25.65-1.55c2.72-.93,4.46,0,5.22,2.78a47.57,47.57,0,0,1,1.36,10.47l.06,5c1,4.52,1.95,9,2.06,9.91l0,2.69q.06,4-.38,9.19a48,48,0,0,1-1.57,9c-.74,2.6-1.9,3.93-3.45,4q-8.26-.08-30.89.73t-33.54,1.74l-.23,3.85c.16,1.83,1.87,11.21,3.8,20.82l-.42,8.65a46.34,46.34,0,0,0,1.82,15.39q2.19,6,8.45,5.09c20.57-.85,24-1.37,24-1.37,11.43-1.71,21.56-3.17,22.53-3.26s5.32.32,8.05.5,3.3,17.07,3.84,23.08l-.07,4.67,1.18,6.07c-1.58,9.35-10.26,17.8-19.28,18.78l-14.57,1.48q-24.1,4.63-35.42,4.68-10.44-.35-19.8-.56t-15.2-3.05q-7.33-4.23-9.88-4.86-3.62-.76-8.28-5.46l-3.11-3.12c-2.81-3.06-5.68-6.24-6.36-7.05a30.61,30.61,0,0,1-3.45-5.84l-.42-5.25a60,60,0,0,0-3-14.82,118.23,118.23,0,0,0-4.76-12.41c-1.17-2.48-1.84-6.82-2-13.05s-.19-12.87-.08-19.94q.63-17.46-.75-26A82.69,82.69,0,0,1,617,188.85a136.75,136.75,0,0,1,.57-14.22q.48-6.49.56-14.58l0-1c0-1,0-11.18.1-22.73,0,0,.07-9.54,1.21-21.38s3-17.76,3-17.76c3.45-11,9.08-25,12.5-31.06l5.93-3.44a66,66,0,0,1,19.6-7.44,131.84,131.84,0,0,1,20-2.78c17-1.32,52,.46,52,.46,11.53.59,22,1.16,23.17,1.26S760.62,61.65,761.08,64Z" fill="#081a2b"/><path d="M912.88,269.42c1.57.19,2.92,2.74,4,7.67a114.29,114.29,0,0,1,2.41,17,84,84,0,0,1-.3,17q-1,7.41-4,7.87c-1.92-.05-5,0-9.34.16a27.9,27.9,0,0,0-4.48.51l-1.07.16c-1.38.18-2.8.33-3.17.33l-.23-.06-.24,0a3.93,3.93,0,0,0-1-.24l-.24-.11a2.1,2.1,0,0,0-.91-.15,12.14,12.14,0,0,0-2.41.36c-.9.21-1.7.39-2.41.53l-.83.27c-.52.09-3.89.5-7.48.93s-10.74.92-15.87,1.1l-6.83-.12q-7.38-.09-14.39,0l-9.69.34q-9,.51-16.78.51h-5.22a63.17,63.17,0,0,0-7.13-.92l-1.92.07-.59,0a16,16,0,0,1-1.71,0l-.54-.05a26.38,26.38,0,0,1-2.35-3.54l-.35-1.42a34.85,34.85,0,0,1-.78-4.46c-.16-1.08-.39-2.21-.66-3.4a59.1,59.1,0,0,1-.78-6.62,32.11,32.11,0,0,1,.19-4.69,43.16,43.16,0,0,0,.35-5.4,65.1,65.1,0,0,1,.62-7.75c.19-1.56.3-3.3.35-5.22s0-4.61-.11-8.08a8.18,8.18,0,0,1-.08-2.43,9.11,9.11,0,0,1,.47-1.9c.1-.49.2-1,.3-1.63a11.07,11.07,0,0,0,.1-2.17,41.45,41.45,0,0,0-.65-5.81c-.37-2.08-.71-4-1-5.81l-.43-1.89c-.14-1.22-.91-9.35-1.71-18.07s-1.53-17.66-1.61-19.86l-.16-4.43q-.22-6.65-.35-14.73c-.07-5.38-.18-10.12-.32-14.18a26.56,26.56,0,0,1,.06-3.42c0-1.43,0-3.6.12-6.47q.65-7.59.79-23.21c0-2.89.09-5.82.23-8.82a121.87,121.87,0,0,0-.11-13.12l-.44-5.61a83.52,83.52,0,0,1-1.81-12.16l.31-1.57a34.82,34.82,0,0,0,.18-4.68q-.35-14.73-1-29.26l-.06-1.56L789.7,66l-.06-1.64,0-1.32c0-1.32,0-2.61,0-3.86l.07-1.26c.31-.66,3-3.15,6-5.55l2.49-.87a47.23,47.23,0,0,1,7.83-2l1.91-.19C810.21,48.76,817,47.76,823,47s23,.23,25.83.49l2.77.14a23.09,23.09,0,0,0,2.88.08,25.25,25.25,0,0,1,7.76,1.16q3.46,1.13,5.8,6.26l1.76,5.69c-.42,6.54-1,14.6-1.33,17.9l0,3q0,3.6.06,6.46.16,4.68,0,8.81a92.54,92.54,0,0,1-1,10.11q-.6,3.44-.86,6.22a47.83,47.83,0,0,0-.13,6.21c.2,2.51.46,4.77.78,6.8a42.07,42.07,0,0,1,.86,9q-.47,7.38-.38,14.75a37.49,37.49,0,0,0,.76,6.26,56.86,56.86,0,0,1,.83,8.06c-.15,2.64-.41,5.4-.78,8.3a76.56,76.56,0,0,0-.71,10.45c.72,26.93.83,27.63.83,27.63,1.78,11.41,3.57,22.44,4,24.5l.23,3.22c.24,3.23.38,6.49.44,9.78s.05,5.79,0,7.46c-.2,4.44-.26,8-.16,10.53l.09,2.57c.4,3,2.73,5.16,5.17,4.88s6.45-1.13,7.32-1.37l1.37-.12c1.37-.1,2.72-.18,4-.23a19.78,19.78,0,0,1,3,.07c1.69.07,3,.1,4.06.13a10.45,10.45,0,0,0,3-.38c1-.28,2.35-.62,4-1a25.47,25.47,0,0,1,3.73-1A14.36,14.36,0,0,1,912.88,269.42Z" fill="#081a2b"/><path d="M1084.24,170.71c.11-1.59.27-4.67.36-6.84s-.34-9.62-.48-11.73l-.31-1.9-.32-2.27c-.25-2.39-.47-4.73-.48-5.19s-.14-2.4-.24-3.29-.63-5.77-1-9.1-.2-12.79-.17-13.23.29-3.29.56-6.31l-.13-2-.13-2c-.41-2.71-.8-5.15-.86-5.42s-.43-3.58-.8-6.59l0-2.4.13-3.12c-.77-4.19-1.91-9.69-2.53-12.22l-.94-2.78-.93-2.78c-1-2.43-6-9.89-11.11-16.59l-4.86-3.67q-7.3-5.49-21.75-7.49A311.86,311.86,0,0,0,999.78,42c-11.55.29-25.46.82-30.92,1.18l-5.12.78-5.13.79c-4.9,1.92-9.47,3.81-10.15,4.19s-4.3,2.34-6.76,3.71l-2.6,1.17a25.68,25.68,0,0,0-13.54,13.25,109.56,109.56,0,0,0-7.26,23.27,175.19,175.19,0,0,0-3.44,24.38l-.49,10c0,10.94-.09,20.41-.12,21.06s0,2.49,0,2.78-.12,5-.29,10.37l-.44,4.22a111,111,0,0,0-.51,13.58l.11,4.62c1.2,6.36,2.69,17.78,3.33,25.37L916,217.87c-.24,6.84-.28,13.21-.13,19.15s.87,10.12,2.15,12.58a49.57,49.57,0,0,1,5.45,16.53,28,28,0,0,0,2.84,8.89l1.27,2.35c1.7,2.38,4.48,6.4,6.19,8.94l1.67,2.93q2.68,5.13,5.27,6.83l1.72,1.14,7.17,2.07c.19.06.75.26.94.3a3.42,3.42,0,0,1,.73.16,25.31,25.31,0,0,0,2.8.68l.91.26.91.27c1.46.62,4,1.57,5.74,2.11s8.17,2,10.4,2.62l1.94.52,4.82,1.15c5.58.16,10.68.33,11.34.38s3.73.12,5.34.08,7.65-.48,9.62-.55l1.8-.07q6.47-.22,12.74-.64l3.35-.24,7.68-.33c.45,0,5.26-.72,10.7-1.58l4.73-1.85c1.29-.52,2.51-1.07,3.62-1.65l1.12-.58c1.27-.78,3.74-2.39,5.48-3.58l1.06-.52,1.06-.51a49.09,49.09,0,0,0,7.36-3.59l2-2.29,2-2.28c1.67-2.15,3.13-4,3.24-4.16s2.49-4.34,5.16-9.05l1.15-4.6.32-1.21c.45-1.23,1.58-5.92,2.51-10.42l.47-6.91a180.4,180.4,0,0,0,.13-21.48,191.41,191.41,0,0,1,.48-21.94c.07-1.2.16-2.28.24-3.25l.08-1c.09-1.26.47-5.06.84-8.44l.22-4,.22-4c-.42-3.36-1-7.64-1.21-9.5v-1.44a22.09,22.09,0,0,1,.48-4.33Zm-55.39,12.13-.11,2.67c0,3.42,0,6.38,0,6.56s0,.66,0,1.05.08,7.13.18,14.06l-.07,6.31q-.12,7-.94,15.42a112.92,112.92,0,0,1-2.28,14.66q-1.35,5.76-4.57,8.26l-.89.72c-.83.84-1.69,1.69-1.9,1.88s-2.2,1.78-3.88,2.95l-1.77.45-1.77.44c-1.89.17-9.65.41-17.24.54l-6.88-1.65a13.62,13.62,0,0,1-7.62-5l-1.72-2.37a106.89,106.89,0,0,1-4-10.62l-.35-1.77c-.36-1.78-.62-3.34-.8-4.7a45.67,45.67,0,0,1-.55-6.82v-1.52c-.16-1.91-.3-3.64-.31-3.84s-.22-2.07-.39-3.79l-.06-1.25-.07-1.25c.06-1.91.12-3.71.13-4s0-4.09-.09-8.45l-.38-3.78-.07-.91c-.09-1.13-.17-2.29-.18-2.58s-.13-2.31-.24-3.83l-.13-1.44-.13-1.21c-.07-1.33-.23-4.68-.35-7.43l.08-2.51c0-1,0-1.82.1-2.51a25.23,25.23,0,0,0,.12-2.74c0-.91-.08-1.93-.2-3.07a46,46,0,0,1-.3-6.42l0-2.56c.09-2.14.19-4.54.2-5.33l0-.61c0-.61,0-1.3,0-2.06q.19-6.94-.06-13.9t-.17-13.61l.09-4.37c.28-2.84.62-5.8.77-6.58l.09-.76.36-2.9c.87-3,1.61-5.45,1.64-5.53s.58-1.41,1.13-2.76L974,101l.65-1.43a15.16,15.16,0,0,1,2.52-2.2l.36-.32.37-.32c.59-.73,1.43-1.72,1.86-2.21l.38-.35a11.14,11.14,0,0,1,1.24-1L983,92c1.87-.48,3.54-.88,3.69-.89L989.4,91l1.16-.12c1.45-.12,2.92-.22,4.41-.27l.62,0c.69,0,1.72-.11,2.3-.18a21,21,0,0,1,2.47,0c.23,0,1.63.19,2.6.27a21.54,21.54,0,0,1,4.14,1.28c.37.19,1.91.93,2.52,1.2a26.26,26.26,0,0,1,3.11,2l.32.18.32.17a5.76,5.76,0,0,1,1,.46s.06.07.13.07a1.58,1.58,0,0,1,.35.16s1.3.74,2.61,1.47l.61.73a13.88,13.88,0,0,1,1.9,4.38q.91,2.82,1.73,4.84a41.14,41.14,0,0,1,1.59,4.27,29.78,29.78,0,0,1,1.07,5.66A53.05,53.05,0,0,0,1026.4,128a35.42,35.42,0,0,1,.88,8c.11,3.76.16,7.79.15,12.13l0,7.07c.3,4.81.93,12.06,1.41,16.1l.09,2.93Q1029,178.62,1028.85,182.84Z" fill="#081a2b"/><path d="M589.07,353.87a1.89,1.89,0,0,0,2-.11c.63-.41,1-1.29-.64-1.23S588.61,353.52,589.07,353.87Z" fill="#081a2b"/><path d="M942.08,355.46c-4.24,4.35,1.73,7.45,13.27,6.89l92.64-4.5c11.53-.56,22.4-1.67,24.16-2.47s3.65-7,3.87-9.47-9-4-20.59-3.48l-84.67,4.1C959.23,347.09,946.32,351.11,942.08,355.46Z" fill="#081a2b"/><path d="M718.6,381.57c.06,1.33,9.55,2.09,21.1,1.68l58.46-2.09c11.54-.41,22.59-.09,24.56.7S826.67,394,827,402.33s2.52,18.42,4.94,22.43,12,5.24,11.75,4.74-.8-11.37-1.21-22.91l-.76-21.3A21.06,21.06,0,0,0,820,365.05L738.39,368c-11.54.41-20.6,4.19-20.13,8.41l.26,4Z" fill="#081a2b"/><path d="M482.92,380.34v-.25c0-.24-9.38-.1-20.92.32L53.67,395.21c-11.54.42-22.46.51-24.26.2l-1.19-1.17L27,393.07c-.34-1.8-.43-12.72-.19-24.27l5.48-272c.23-11.55-1.26-20.94-3.31-20.86a21.66,21.66,0,0,0-7.09,1.71c-1.84.87-3.61,14.76-3.85,26.31L12.44,383.62c-.24,11.54.3,22.64,1.2,24.65s15.1,3.17,26.64,2.75L462,395.74c11.54-.42,21-1,21-1.34s-.11-5.31-.25-10.53Z" fill="#081a2b"/><path d="M48.29,515.35h0l21-.66,140.6-4.47c11.54-.36,27.71-7.3,35.93-15.41L285.14,456c8.22-8.12,14.82-18.28,14.67-22.59s-2.08-10-4.28-12.59-15.29,6.39-23.52,14.51l-42.56,42c-8.22,8.12-15.64,15.22-16.49,15.78s-12.86,1.39-24.4,1.76L55,499.13c-11.54.37-22.51,1.34-24.38,2.17S26.05,515.92,25,527.42L.89,792.57c-1,11.5-1.19,22.76-.32,25s8,3.88,10.31,3.79,5.13-9.56,6.18-21.06L40.57,541.77c1-11.5,3.15-23.34,4.67-26.31Z" fill="#081a2b"/><path d="M718.41,469.2c.11,5,9.64,8.8,21.18,8.35l364.24-14.17c11.54-.45,21-2.68,21.07-5a22.19,22.19,0,0,0-1.61-8c-.94-2.12-15.4-3.32-27-2.87L739.86,461.38c-11.54.45-21,1.91-21.08,3.25l-.1,1.19Z" fill="#081a2b"/><path d="M482,474.45c0-1.67-9.41-2.67-20.95-2.22L360.4,476.14c-11.54.45-20.85,4.45-20.7,8.89s9.73,7.7,21.28,7.25l100.14-3.9c11.54-.45,20.92-4.23,20.85-8.4v-5.53Z" fill="#081a2b"/><path d="M563,614.13l-2.45-11.66c-3.22-4.79-7.8-9.88-10.17-11.31s-7.23-5.75-8.86-7.18l-1.68-.65q-2.54-1-9.06,0l-4.35.7c-8.72,2-16.27,12.13-16.77,22.43l1.25,10a109.46,109.46,0,0,1,1.19,17.11c-.52,11.54-1.8,30.39-2.84,41.9,0,0-.76,8.45-.28,26.34s2.55,33.31,6.18,46.24c1.57,5.82,2.18,10.52,1.86,14.13q-.27,5,1.38,7.24t9.12,1.64l5-.35c10.89-1.82,24.27-6.91,29.74-11.31l2.83-11.42q4.24-17.14,4.95-41.88a455.59,455.59,0,0,0-1.31-49.65A346.67,346.67,0,0,0,563,614.13Z" fill="#081a2b"/><path d="M1064.17,652.09a91.85,91.85,0,0,0-1-10.28,155.13,155.13,0,0,1-.5-15.82q0-6.5-.15-12.13a34.27,34.27,0,0,0-.88-8,53.05,53.05,0,0,1-2.06-10.53,29.78,29.78,0,0,0-1.07-5.66,44.74,44.74,0,0,0-1.58-4.28q-.83-2-1.74-4.83a13.65,13.65,0,0,0-1.9-4.38l-.6-.74-2.52-1.39a3.37,3.37,0,0,0-.32-.19c-.07,0-.26-.07-.26-.11a5.76,5.76,0,0,0-1-.46l-.32-.17-.31-.18a23.25,23.25,0,0,0-2-1.4c-.59-.35-2.53-1.21-2.92-1.41s-2.16-1-3.1-1.27a31.1,31.1,0,0,0-3.92-.57c-.23,0-1.29-.11-1.85-.1s-2.65.22-3.34.25l-.62,0q-2.24.07-4.41.27l-1.16.12L1022,569c-.16,0-1.82.41-3.7.89L1016.7,571a10.29,10.29,0,0,0-1.24,1l-.39.35c-.43.49-1.27,1.48-1.86,2.22l-.36.31-.37.32a15.09,15.09,0,0,0-2.51,2.19l-.66,1.44-.65,1.42c-.56,1.35-1,2.52-1.08,2.61s-.82,2.72-1.7,5.68l-.35,2.9-.1.76c-.15.78-.49,3.74-.77,6.58l-.09,4.37q-.14,6.55.17,13.61t.06,13.9c0,.76,0,1.45,0,2.06v.61c0,.79-.12,3.19-.21,5.33l0,2.56a44.69,44.69,0,0,0,.29,6.42c.12,1.14.19,2.16.2,3.07a25.23,25.23,0,0,1-.12,2.74c-.06.69-.09,1.52-.1,2.51l-.08,2.51c.13,2.75.28,6.1.35,7.43l.13,1.21c.13,1.44.25,2.85.34,4.21l0,.53c0,.58.1,2,.19,3.11l.07.91.39,3.78c.05,4.36.09,8.16.08,8.45s-.06,2.08-.13,4l.07,1.25.06,1.25c.17,1.72.33,3.27.36,3.45s.18,2.27.34,4.18v1.52a45.81,45.81,0,0,0,.56,6.82c.17,1.36.44,2.92.79,4.7l.35,1.77a106.89,106.89,0,0,0,4,10.62l1.72,2.37,1.73,2.38a62.21,62.21,0,0,0,12.78,3.66c3.78.58,15.34.22,17.23,0l1.77-.44,1.77-.45c1.68-1.17,3.25-2.32,3.48-2.55s1.47-1.44,2.31-2.28l.89-.72q3.21-2.5,4.56-8.26a109.59,109.59,0,0,0,2.28-14.66q.83-8.46,1-15.42l.07-6.31c-.1-6.93-.18-12.93-.18-13.34s0-1.58,0-1.77,0-3.14,0-6.57l.11-2.66Q1064.3,656.47,1064.17,652.09Z" fill="#081a2b"/><path d="M1147.61,470.33l-1.44-1.41c-2.21-.39-13.46-.33-25,.12L739.82,483.87c-11.54.44-21.09.68-21.23.53l-.17-.19a51.56,51.56,0,0,0,.19-5.84c0-4.21-.19-9.17.08-12.55.09-1.19.11-2.42.19-3.62,1.61-23.21,1-47.56.13-72.57-.07-1.93-.19-3.77-.3-5.64-.06-1.19-.11-2.42-.19-3.6-.26-4-.68-7.87-1.11-11.68l-.13-1.13c-.11-1.27-.27-2.87-.36-3.54a14.13,14.13,0,0,0-.23-1.5l0-.15c0-.28-.09-.55-.15-.82l.06.27c0,.3,9.53.19,21.08-.26l88.61-3.45A21,21,0,0,1,848,378.3l.71,19.95c.42,11.54,1.62,23.46,2.68,26.5l2.73,1.09,2.71,1.07c2.86-1.48,11.92-9.32,20.15-17.43l54.52-53.81c8.23-8.11,24.4-15,35.94-15.39l100-3.06c11.54-.35,22.5-1.32,24.36-2.15s4.57-14.61,5.62-26.11l25.46-280c1-11.51,1.66-22.81,1.36-25.12l-1.45-1.54L1121.28.76c-2.29-.41-13.61-.42-25.15,0L70.58,37.31C59,37.72,48,38.8,46.07,39.71s-3.81,15-4.07,26.56l-6.57,293.8c-.26,11.55-.13,22.8.29,25l1.45,1.43,1.44,1.41c2.21.38,13.46.33,25-.12l399.12-15.52c11.54-.45,20.75.8,20.46,2.77l-.12,2c0,.25-.07.44-.08.7l-.18,3.52c.15,5.22.26,10,.25,10.51v.76L483,397.7c.09,9,.09,18.8,0,21.8s-.39,14.9-.7,26.45c0,0-.26,10-.33,25.46,0,1.49,0,3,0,4.5,0,4.07.06,7.93.14,11.66l0,1.2c0,1.32.07,2.89.08,3.47s.05,1.15.07,1.25-9.39.76-20.93,1.21l-102.84,4a21,21,0,0,1-21.73-20.17l-.72-19.95c-.41-11.54-1.61-23.47-2.67-26.5L330.66,431l-2.72-1.07c-2.85,1.48-11.92,9.32-20.14,17.43l-54.53,53.81c-8.22,8.11-24.39,15.05-35.93,15.41L77.23,521c-11.55.36-22.51,1.34-24.37,2.17s-4.57,14.61-5.61,26.12l-25.46,280c-1.05,11.5-1.66,22.81-1.37,25.12L21.87,856l1.46,1.54c2.29.41,13.61.42,25.16,0l1065.71-38c11.54-.41,22.57-1.49,24.51-2.4s3.81-15,4.07-26.56l6.57-293.8c.25-11.55.13-22.8-.29-25ZM56.61,73.56A22.58,22.58,0,0,1,78.06,51.82l1010.22-36c11.54-.42,20.13,8.66,19.08,20.16l-24.11,265.15c-1,11.5-11.35,21.2-22.89,21.55l-96.49,3c-11.55.36-21.76.83-22.71,1.05s-9.75,8.34-18,16.45l-44.63,44c-8.22,8.11-15.28,5.31-15.69-6.23l-.38-10.55c-.41-11.55-1.15-22.7-1.65-24.8l-1.46-1.35-1.68-1.55c-2-.22-13.06,0-24.6.41l-105.19,4.09c-11.54.45-19.76,1.65-18.27,2.66l1.18,1.16a20.56,20.56,0,0,0-3.9-3l-2.65-1.58c-3.39-.67-6.47-1.24-6.84-1.27l-6.4-.5-3.15.11c-10.06.36-16.07,1.45-20.75,3.76l-.6.3c-.58.44-6.8,1-13.82,1.29l-12.78.49-15.71-3-7.45.27a78.39,78.39,0,0,0-12.72,1.76c-1.62.32-3.27.66-5,.91a19,19,0,0,0-5.68,1.88l-1.22.61a3.75,3.75,0,0,1-3.93.22l-.86-.59c-9.46-6.49-10-6.5-10-6.5-11.55-.12-21.8-.33-22.77-.46l-1,0c-3.61-.08-18.41.06-21.92.18l-5.52.2-12,1.58-2.74.34-1.86.22-.2,0c-8.53,1-14.18,4.36-18,8.17a27.11,27.11,0,0,0-3.83,4.89l1-1.62c1.56-1.8-6.61-2.9-18.15-2.45L70.88,372.73a19.56,19.56,0,0,1-20.52-20.17ZM714.69,356.27c-.18-.34-.37-.68-.58-1C714.32,355.59,714.51,355.93,714.69,356.27ZM503.12,392.71c0-.4,0-.73,0-1v-.43c0-.31-.11-4.54-.26-9.42l.15-3.05c.05-.9.14-1.68.24-2.44a15.39,15.39,0,0,1,.63-3.1,6.9,6.9,0,0,1,1.66-2.64l1.33-1.35c2.64-.61,5.14-1.16,5.55-1.22s3.23-.36,5.13-.61l1.7-.23a128.47,128.47,0,0,1,13.09-1.28l3.18-.11c9.66,0,17.77,0,18,.06l.28.1a2,2,0,0,0,.41.11c.84,0,13.24-.34,19.44,1.89,1.83.65,3.2,1.5,3.47,2.67a1.47,1.47,0,0,1,.07.41c0,.08-.1,1.31-.22,2.67-.07.84-.15,1.71-.2,2.44s-.1,1.3-.09,1.46l0,.56c-.09.51-.27,4-.41,7.81l-.7,3.12c-.07.33-.07.71-.16,1-1.18,4.19-3.71,7.36-9.44,7.67l-.55,0c-6.18-.09-11.65-.32-12.17-.5h-.38l-.74,0a79.74,79.74,0,0,1-9.76-1l-4.29.15h-.37c-.72.13-1.55,5.12-1.85,11.09l.17,4.86v.19c.12.51,3,.82,6.38.7s13.45-1.07,22.35-2.1l.26,7.09.17,4.85c-.32,5.36-2.72,11.29-5.32,13.19s-14.32,3.9-14.63,4.07a20.21,20.21,0,0,1-4.09.42c-1.85.07-3.7,1.15-4.12,2.39s-.53,6.46-.29,10.2,4.45,6.33,9.36,5.74L552,459c2.24-.07,8-.09,8.59-.11s20.33-1.1,20.57,5.43c0,1.06,0,2.13.06,3.19.05,1.75.1,3.5.11,5.25,0,3.69-.11,7.33-.38,10.92-.09,1.26-.14,2.53-.28,3.77l0,.46a3.45,3.45,0,0,1-1,1.77l-.48.4c-2.85,2.37-7.06,2.79-10.42,2.91-15.12.54-30.21,2-45.33,2.55l-5.22.19a102.52,102.52,0,0,0-11.82-1.08l-.74,0a4.74,4.74,0,0,1-3-1.63,1.18,1.18,0,0,1-.27-.5c0-.67,0-1.37-.06-2.06,0-1.2-.05-2.49-.08-3.75-.07-3.48-.12-7.09-.12-10.91,0-1.71,0-3.48,0-5.24.1-19.41.57-35.58.57-35.58.34-11.55.55-28.15.46-36.88ZM378.45,568.45c1.13-2.4,2.9-5.65,5.26-9.67l2.52-4.32c1.65-1.76,4.55-4.85,6.43-6.87l1.42-1.84c.52-.66,1.08-1.33,1.54-2,.16-.23.31-.47.45-.71l1-1.8c2.42-2,4.43-3.73,4.47-3.75s2-.21,4.25-.41l5.88,2.24a71.1,71.1,0,0,1,16.49,8.91l3.85,2.84c.89,1.28,1,4.94.21,8.13L430,562.13c-.65.86-1.37,1.63-2.05,2.45a81.39,81.39,0,0,1-8.67,9.17c-.12.11-.23.21-.34.33a95.16,95.16,0,0,0-11.53,13.37,2.9,2.9,0,0,0-.19.29c-2.6,4.08-6.88,8.31-12.55,12.42-3.94,2.7-7.08,5-9.36,6.83-1.9,1.55-3.82,3.22-5.72,5l-1,.86-.34.33c-1.33,1.37-3.12,3-5.4,5-3.35,2.94-5.19,3.8-5.82,4-.31.11-1.52.43-4.26-.13l-.42-.08-6.37-1c-2.23-1.09-4.27-2.16-4.54-2.38a17,17,0,0,1-1-4.34l.2-.46a42.93,42.93,0,0,1,2.68-5.18c1.21-2,2.17-3.53,2.93-4.57a9,9,0,0,0,.76-1.26l.13-.26c.14-.33,1.67-3,3.38-5.82l1-1.89c.25-.47.51-1,.78-1.51l.89-1.73c1.18-2.51,3-6,4-7.68s6.14-7.81,8.87-11.13l2.08-3.7C378.27,568.81,378.36,568.63,378.45,568.45ZM243.9,770l-.4,7.26c-.8,4.8-1.78,9.75-2.18,11S237.54,801,234.58,811l-4.26,6.75q-6.36,10.11-22.9,10.34Q193,828,183.77,830l-6.08,1.18a242.14,242.14,0,0,1-29.54-1l-5.52-2-5.52-2c-4.64-2.21-11.21-5.25-14.59-6.74l-1.69-.41q-3.45-.79-8.11-5.64l-3.11-3.26c-2.61-3.1-5.34-6.31-6.07-7.14s-2.71-3.52-4-5.4L98,793.58q-2.38-6.12-4.61-13.23l-2-6a118.69,118.69,0,0,1-4.59-13.76l-.16-6.29q-.25-9.42.09-20.22l.41-11.88c-.65-8.08-2.16-20.2-3.36-26.93l-.05-4.85q-.09-7.27.38-14.48l.32-4.33c.22-5.84.38-11.37.35-12.28l0-.85A427.41,427.41,0,0,1,86,615.27a149.32,149.32,0,0,1,3.57-21.69c2.9-11.18,8-25.38,11.4-31.54l5.75-3.51a59.81,59.81,0,0,1,19.14-7.41,133.22,133.22,0,0,1,19.32-2.67A273.85,273.85,0,0,1,201.28,550Q215,552.25,222,558.11L226.6,562c4.85,7.08,10.2,17.23,11.89,22.55l1.14,10.21q1.73,15.3,2.66,31.44t1,23.16l0,2.52c.05,2.46.22,7.48.37,11.15l-.58,2.24-.58,2.24a53.78,53.78,0,0,1-7.57,2.07c-1.15.12-9.6,1.27-15.56,2.14l-6,.45q-9,.67-15-1.26c-4-1.3-5.72-4.11-5.16-8.45a130.22,130.22,0,0,0,.79-23q-.16-4.66-.09-7.9a117.13,117.13,0,0,0-1-12.45,105.74,105.74,0,0,0-3.4-17.23L188,596.41c-2.62-1.92-11.3-1.67-19.28.54L167,604.74l-1.7,7.78c.19,9.53.38,18.79.43,20.56s-.12,9.54-.35,13.72L165,653q-.66,9.27-1.69,20.64-1.56,16.59-2.51,30.46t-.3,16.73A110.58,110.58,0,0,1,163.37,752l-.28,9.25A100.93,100.93,0,0,0,171,786.48l3.92.76a12.46,12.46,0,0,0,10.77-2.9q4.89-4,6.37-7.68A54.93,54.93,0,0,0,196,759.8a160.13,160.13,0,0,0,.32-16.37,102.84,102.84,0,0,1,.31-13.75l.41-3.91c1.82-2.73,5.4-5.49,8-6.16l5,.24q7.54.36,14.94,1c3.73.35,6.49.55,8.3.61q6.84.3,8.72,7.77a81.57,81.57,0,0,1,2.08,18.08Q244.5,759.15,243.9,770Zm196.68-90.45c.24,1.87.79,6.15,1.21,9.51l-.22,4-.22,4c-.38,3.38-.75,7.18-.84,8.43l-.08,1c-.09,1-.17,2.05-.25,3.26a193.71,193.71,0,0,0-.47,21.94,180.4,180.4,0,0,1-.13,21.48l-.47,6.91c-.93,4.5-2.06,9.19-2.51,10.42l-.32,1.21-1.16,4.6c-2.66,4.71-4.9,8.67-5,8.8s-1.74,2.26-3.41,4.41l-2,2.28-2,2.29a48.17,48.17,0,0,1-7.36,3.59l-1.06.51-1.06.52c-1.74,1.18-4.2,2.8-5.47,3.58l-1.12.58c-1.12.58-2.33,1.13-3.62,1.65l-4.73,1.85c-5.44.86-10.25,1.57-10.7,1.58l-7.69.34-3.34.23c-4.19.27-8.43.49-12.75.64l-1.79.07c-2,.07-5,.24-6.64.38s-6.46.21-7.12.16-7-.29-12.54-.45L331,808.23l-1.94-.53c-2.23-.57-5.49-1.37-7.25-1.77a92.39,92.39,0,0,1-8.88-3l-.91-.26-.91-.26a21.81,21.81,0,0,1-2.8-.69s-.17-.09-.37-.1a6.09,6.09,0,0,1-1-.24c-.15-.06-3.71-1.1-7.48-2.18l-1.71-1.14L296,797c-2-3.13-4.29-6.91-5.18-8.41s-4.53-6.77-6.23-9.15l-1.28-2.35a28.25,28.25,0,0,1-2.83-8.9,49.59,49.59,0,0,0-5.45-16.52q-1.94-3.69-2.15-12.58c-.16-5.94-.11-12.31.13-19.15l.43-11.17c-.63-7.58-2.13-19-3.33-25.36l-.1-4.62a113,113,0,0,1,.5-13.58L271,661c.17-5.41.3-10.07.29-10.37s0-1,0-1.65.1-11.26.14-22.19l.49-10a175,175,0,0,1,3.44-24.38,109.4,109.4,0,0,1,7.25-23.27,25.7,25.7,0,0,1,13.55-13.25l2.6-1.17c2.45-1.37,5-2.75,5.58-3.07s6.42-2.91,11.33-4.84l5.12-.78,5.13-.78c5.46-.36,15.45-.87,22.19-1.14s23.35,1.69,22,3.69l-1.3,2.23-2.55,4.36c-1.8,3.5-3.91,7.35-4.7,8.57s-5.5,6.93-8.83,10.9L349.9,579a4.44,4.44,0,0,0-.24.49c-1.36,3-2.51,5.35-3.43,7l-.93,1.74c-1.74,2.89-4.29,5.63-5.67,6.09l-1.2.83a11.14,11.14,0,0,0-1.24,1l-.38.35c-.43.49-1.27,1.48-1.87,2.22l-.36.31-.36.32a15.54,15.54,0,0,0-2.52,2.19l-.65,1.44-.66,1.42-1.08,2.61c0,.08-.82,2.72-1.7,5.68l-.35,2.9-.1.76c-.14.78-.49,3.74-.76,6.58l-.09,4.37q-.15,6.55.17,13.61t.06,13.9c0,.76,0,1.44-.05,2.06l0,.61c0,.79-.11,3.19-.21,5.33l0,2.56a44.69,44.69,0,0,0,.29,6.42c.12,1.14.19,2.16.21,3.07a23,23,0,0,1-.13,2.74c-.05.69-.09,1.52-.09,2.51l-.08,2.51c.12,2.75.28,6.1.35,7.43l.12,1.21c.14,1.44.25,2.85.34,4.21l0,.53c0,.58.11,2,.2,3.11l.07.91.38,3.78c.06,4.36.09,8.16.09,8.45s-.07,2.08-.13,4l.06,1.25.07,1.25c.17,1.72.33,3.27.35,3.44s.19,2.28.35,4.19v1.52a45.67,45.67,0,0,0,.55,6.82c.18,1.36.44,2.92.79,4.7l.36,1.77a103.62,103.62,0,0,0,4,10.62l1.73,2.37,1.72,2.38a62.57,62.57,0,0,0,12.78,3.66c3.79.58,15.34.22,17.23,0l1.77-.44,1.78-.45c1.68-1.17,3.24-2.32,3.47-2.55s1.47-1.44,2.31-2.28l.89-.72q3.21-2.5,4.57-8.26A112.92,112.92,0,0,0,385,730.94q.81-8.46.94-15.42l.07-6.31c-.1-6.93-.18-12.93-.17-13.34s0-1.58,0-1.77,0-3.14,0-6.57l.11-2.66q.17-4.22,0-8.6l-.09-2.93c-.48-4-1.12-11.29-1.41-16.1l0-7.07q0-6.49-.16-12.13l-.08-2.73a13.36,13.36,0,0,1-.14-4l.16-.14,2.51-2.15c2.09-2,5.52-5.19,7.63-7.07l1.87-1.53c1.9-1.53,4.67-3.55,8.41-6.12l7.68-5.56c5.19-6.38,10.62-13.11,12.08-15s7.27-7.92,8.14-8.73,3.22-2.49,3.4-1.84l.1.52a39.35,39.35,0,0,1,1.28,10.75l0,2.4c.38,3,.7,5.74.73,6.05s.52,3.25.94,6l.12,2,.14,2c-.28,3-.53,5.87-.56,6.31s-.08,3.63-.11,7.08,1,12.89,1.06,13.71.37,3.54.38,4,.27,3.64.52,6l.32,2.26.31,1.9c.14,2.11.34,5.61.46,7.78s-.23,9.2-.34,10.79l-.2,1.09a21.27,21.27,0,0,0-.48,4.33ZM633,714.89q-.45,15-1.36,19.73l-.81,4.23c-.11,4.32-.18,11.2-.14,15.31l-.64,4.15q-.95,6.24-5.68,14.31-3,5.5-4.87,9.71a49,49,0,0,1-5.49,9.8L611.93,795a77.36,77.36,0,0,1-16,7.25l-8.7,1.51q-13,2.26-29.77,4.31t-30.73,2.79l-9.33.52a122.73,122.73,0,0,0-15.31-1l-2.51.09a59.09,59.09,0,0,0-7.69.81l-2.15.44c-2.7-.69-10.9-2-18.23-3l-2.62-4.69q-3.94-7-4-18.19-.27-12,.23-23.74a295.89,295.89,0,0,0,0-29.65q-.48-8.09-.28-18,.67-21.22-2.77-37.28-1.47-5.88-1.72-25.73t-.26-40q-.11-17.79-.21-26.06l-.05-1.44c-.07-1.77-.17-6.41-.22-10.29l-.19-3.7a29.62,29.62,0,0,0-1.68-9.11q-3.93-9.39-.31-13.74t11.85-5.64a155.35,155.35,0,0,1,18.09-1.63l8.62-.07c8-1.3,20.37-3.2,27.56-4.21l12.29,0q18.42.06,36.55,1.92l12.09,1.26c6.66,2.4,13.88,5.56,16.06,7s7.51,4.67,9.16,5.73l.87.8A10.25,10.25,0,0,1,612.9,556l.66,1.59c1,3.38,2,6.88,2.32,7.79s1.25,4.17,1.45,4.75,2.36,7.76,4.45,14.63l1.53,5.82,1.52,5.82c1.23,7.5,2.65,19.59,3.17,26.85l.18,8.14c.24,6.58.57,12.92,1,19a81.7,81.7,0,0,0,2.35,15.2q1.23,4.46,1.58,19.35T633,714.89Zm14.4-275.79a16,16,0,0,0-1-1.36,13.67,13.67,0,0,1-1.29-2.75l-.85-.8a25.07,25.07,0,0,1-3.53-5l-.43-.72c-.47-.77-2.62-4-4.77-7.16l-3.29.12a5.51,5.51,0,0,0-5.3,5.7c.15,4.26.54,8.5.93,12.61l.38,4.14c.27,4.32.52,8.39.55,9s.18,4.48.36,8.5l-.43,3.47,0,.2c-.38.23-.47.47-.19.52s.27.38,0,.72-.28,3.92,0,7.95.5,7.39.5,7.47v2.41A3.14,3.14,0,0,1,627,487l-1.7.06h-.38c-.4.08-3.7.31-7.32.51s-9.3-2.15-9.56-3.66l-.19-1.28c0-.07,0-.18,0-.26a.34.34,0,0,1,0-.1l-.39-2.59a51.22,51.22,0,0,1-.88-7.58c-.08-2.39-.16-4.61-.17-4.95s-.11-2.94-.21-5.79-.16-5.25-.13-5.35l0-.09a5.72,5.72,0,0,0,.22-1.75v-.3a8.12,8.12,0,0,1-.06-1.07c0-.26-.05-1.06,0-1.18s-.08-2.88-.19-5.87-.17-5.52-.14-5.62l0-.09a5.72,5.72,0,0,0,.22-1.75v-.26a6.61,6.61,0,0,1,0-1v-.24l0-.74c-.24-.79-.8-9.28-1.24-18.87s-.65-18-.48-18.72l0-.67,0-.92a50.94,50.94,0,0,1-.58-5.65c-.06-1.62-.11-3-.12-3.1V388a5.41,5.41,0,0,1,0-.7v-.5a6.66,6.66,0,0,1,0-1v-.24c0-.15,0-.28-.05-.42l0-.4a6.78,6.78,0,0,1-.17-1c0-.21-.19-3-.42-6.12l-.28-2.71c-.08-.7-.14-1.36-.2-2,0-.52-.11-1.06-.16-1.58l0-.28c0-.31,1.75-.88,4-1.27l1.94-.38a59.38,59.38,0,0,1,9.49-1.38A60.36,60.36,0,0,1,635,370.05l.16.05a6.2,6.2,0,0,1,1.18.59l.84.88c1.52,1.61,4,5,7.87,12.06.49.9,1,1.9,1.56,2.93l2,3.83c2.71,5.78,5.26,11.36,5.65,12.4l.75,2,6.11,16.5c2.66,6.12,4.83,11.14,4.81,11.15s0,.1.07.2.29.46.53.8a11.14,11.14,0,0,0,1.29,1.29,17.06,17.06,0,0,0,1.77.83l.66.09,1.76.21c1.62-1.06,3-2,3.13-2.12a16.55,16.55,0,0,0,.94-1.44,11.12,11.12,0,0,0,.68-3.54c0-.46,0-3.83,0-7.47l.18-3.49c.06-1.28.13-2.57.18-3.86a2.94,2.94,0,0,0,0-.42c0-.17,0-.61-.09-1.19-.08-.81-.21-2.07-.24-3a93.31,93.31,0,0,1,.33-9.46l0-.3c0-.33-.1-3.64-.23-7.35s-.27-7.41-.3-8.23-.15-4.27-.27-7.66-.23-6.52-.25-7,0-1.26-.06-1.83,1.93-1.67,4.35-2.44l8.17-.29a62.78,62.78,0,0,1,6.62.29l.51,0a2.76,2.76,0,0,1,1,.19,11.35,11.35,0,0,1,.32,1.74l.1.76c.06.5.09,1.07.15,1.58.47,3.94.89,8,1.18,12.3.06,1,.1,2,.15,3,.11,1.86.23,3.71.3,5.64.94,26.29,1.49,50.29-.21,72.63,0,.41,0,.83-.06,1.24-.37,4.62-.8,9.2-1.39,13.69a5.56,5.56,0,0,0,0,.91v.12a2.35,2.35,0,0,0,0,.26l.14,4.35c-3.35.45-6.37.83-6.72.84l-1.37.05c-.41,0-4.28.52-7.25.63a20.64,20.64,0,0,1-9.36-2.1l-1.6-2.75-.17-.26c-.84-1.49-1.68-3.23-2.6-5.25-.78-1.69-1.58-3.44-2.53-5.18a34.67,34.67,0,0,0-2.74-3.93c-.28-.36-.54-.72-.83-1.08a1,1,0,0,0-.08-.11L661,462.92a25.55,25.55,0,0,1-3.22-7.68l-1.9-2.71-1.7-2.41C650.85,445,647.72,439.52,647.44,439.1Zm84.73,359.37a122,122,0,0,1-28.12,5.14,107.31,107.31,0,0,1-28.17-1.16l-8.14-1.57c-2.68-4.36-4.91-10.66-5-14s-.64-19.44-1-23.38l-.6-3.22-.44-2.62c-.32-3.28-.58-6.75-.59-7.7l.1-.61.1-.6c.21-.67.47-1.66.58-2.21L661,746a10.4,10.4,0,0,0,.1-2.24,40.9,40.9,0,0,0-.65-5.64q-.57-3.12-1.19-5.62l-.43-1.9c-.14-1.22-1-9.18-1.89-17.7s-1.68-17.28-1.74-19.47l-.1-4.37c-.09-4.36-.21-9.18-.33-14.46s-.2-9.87-.22-13.82l-.05-1.32c0-1.15,0-3.61.16-5.46l.26-2.77q.63-7.56.8-23,0-4.12.41-8.46a95.13,95.13,0,0,0,.09-13l-.44-5.49c-1.23-4.84-2-10.2-1.74-11.92l.78-1.59.78-1.57c.27-1.64.22-12.2-.12-23.49L655,552.56l-.09-2.51c0-.48,0-1.41-.1-2.78s0-2.7,0-4l.07-1.25c.31-.66,3.57-3.17,7.24-5.59l2.84-.89,2.85-.87L678.58,533l2.51-.46a95.32,95.32,0,0,1,13.59-1.92A61.25,61.25,0,0,1,704,531l2.77.39c4.73.35,9,.64,9.55.64s4.78.18,8.28.3l2.66.81L730,534a28.93,28.93,0,0,1,5.25,10.89c.57,3.16-.19,13-.35,14.57s-.23,7.88-.15,10.28l.07,1.92c.11,3,.09,5.87,0,8.62a66.11,66.11,0,0,1-1.44,9.94q-.62,3.25-1,6l-.23,1.87c0,2.29.12,5.23.27,6.52s1.12,6.73,1.66,9.74l-.12,3.48-.3,4.8a122.21,122.21,0,0,0,.24,13.53l.44,2.14.56,2.5a79.6,79.6,0,0,1,0,8c-.13,1.47-.91,7-1.12,8.85s-.2,16.32.17,27.87c0,0,.14,4.53,1.07,15.34l.92,10.82c1.13,5.21,2.39,11.15,2.81,13.2l.29,3.17c.29,3.15.47,6.32.52,9.5s.05,5.6,0,7.27c-.21,4.09-.31,7.33-.28,9.72a34.85,34.85,0,0,0,.8,7.17c.5,2.38,1.23,5.52,2.22,9.44.68,2.5,1.33,5.44,1.93,8.83l.6,3.39c.14,3-1.89,8.58-4.51,12.38Zm198.24-66q-.76,11.63-1.72,19.92c-.25,2.89-.42,5-.49,6.3q-1.28,24.68-9,32.41c-5.15,5.16-6.05,5.22-6.05,5.22-11.52.77-29.67,1.75-40.33,2.16l-8.23,1.13-8.22,1.25a295.6,295.6,0,0,1-31.94-1.05l-5.64-1.9a146.2,146.2,0,0,1-14.3-5.51l-3.66-1.66a81.18,81.18,0,0,1-9.53-3.55l-3.11-3c-3.1-3-5.77-5.78-8-8.34L778.55,774a40,40,0,0,1-3.82-4.56l-1.57-3.84q-2.37-5.76-4.76-12.5-3-8.34-4.55-11.71-1.76-3.72-2-12.41t.32-19l.45-10.92c-.54-7.52-2-20.37-3.33-28.55V661.8q0-13,.63-25.09l.18-5.16c.12-4.88.22-9.25.22-9.71s.24-11.13.43-22.68c0,0,.13-8,1.28-19.15a112.62,112.62,0,0,1,3.49-18.87c3.35-11.06,9-24.78,12.52-30.49l5.93-3.26a65.16,65.16,0,0,1,19.8-6.92,139.91,139.91,0,0,1,20.05-2.33q14.7-.87,32.33-.7a252.91,252.91,0,0,1,32.07,2.19q14.09,2,21.11,7.42l4.68,3.61c5,6.69,10.37,16.2,12.05,21.13l1.11,9.48q1.68,14.25,2.49,29.31t.68,21.72l0,2.28c.05,2.3.19,7,.32,10.42l-.65,2-.65,2.06a93.91,93.91,0,0,1-9.93,2.22l-2.74.33q-8.24,1-17.38,1.61A44.33,44.33,0,0,1,884,632l-4.12-1.23c-.55-3.62-.42-12.84.29-20.48l-.27-7.53q-.15-4.31-.08-7.37a109.84,109.84,0,0,0-.86-11.65,82.77,82.77,0,0,0-3.36-16l-1.63-5.1c-2.63-1.82-6.56-3.35-8.74-3.41l-1.44-.07c-2.4-.14-4.2-.2-5.4-.16a5.18,5.18,0,0,0-3,1l-.81.63c-1.36,1.5-3,3.29-3.64,4a103.91,103.91,0,0,0-7.39,12l-.87,7.52-.87,7.52c-.19,6.12-.54,14.16-.77,17.86l-.39,5.88q-.58,8.83-1.6,20.54-1,13.53-2,27.22t-1.5,23.42l-.31,6.48c.15,2.86,1.73,13.48,3.51,23.6L838.1,727l-.29,8.63c1.06,6.78,5,17.43,8.84,23.65l5.48.65a26.89,26.89,0,0,0,15.62-2.81l5-2.51c2.38-2.61,6.37-12.23,8.88-21.38l-.1-9.59c0-.71-1.06-1.14-3.1-1.31s-4.33-.27-6.84-.3-4.92-.09-6.84-.21l-1.92-.11a3.67,3.67,0,0,1-1.18-1.88c0-.41.09-6.68.08-12.91l.15-7.55q.23-11.34,1.14-21l.61-6.44c1.31-2.89,4.35-5.71,6.76-6.26l5.57-.07q8.34-.12,18.78.23t18.19.78l3.83.1a25.66,25.66,0,0,1,8.95,2.89l1.42,4.69a76.82,76.82,0,0,1,2.84,16.52q.69,9.51,1,17c0,1.55.1,2.94.14,4.12Q931.16,720.83,930.41,732.45Zm188.43-77c.25,1.87.79,6.15,1.21,9.51l-.22,4-.22,4c-.37,3.38-.75,7.18-.84,8.43l-.07,1c-.09,1-.17,2-.25,3.26a191.4,191.4,0,0,0-.47,21.94,182.48,182.48,0,0,1-.14,21.48l-.47,6.91c-.93,4.5-2,9.19-2.51,10.42l-.32,1.21-1.15,4.6-5,8.8c-.08.13-1.74,2.26-3.41,4.41l-2,2.28-2,2.29a49.09,49.09,0,0,1-7.36,3.59l-1.06.51-1.06.52c-1.74,1.18-4.21,2.8-5.48,3.58l-1.12.58c-1.11.58-2.33,1.13-3.62,1.65l-4.73,1.85c-5.44.86-10.25,1.57-10.7,1.58l-7.68.34-3.35.23q-6.29.4-12.74.64l-1.79.07c-2,.07-5,.24-6.64.38s-6.46.21-7.12.16-7-.29-12.54-.45l-4.83-1.15-1.94-.53c-2.23-.57-5.49-1.37-7.25-1.77a92.39,92.39,0,0,1-8.88-3l-.91-.26-.92-.26a25.31,25.31,0,0,1-2.8-.68c0-.06-.16-.1-.36-.11a5.85,5.85,0,0,1-1-.24c-.15-.06-3.72-1.1-7.48-2.18L976,773.92l-1.73-1.14c-1.95-3.13-4.28-6.91-5.18-8.41s-4.53-6.77-6.23-9.15l-1.27-2.35a28.24,28.24,0,0,1-2.84-8.9,49.59,49.59,0,0,0-5.45-16.52q-1.92-3.69-2.15-12.58c-.15-5.94-.11-12.31.13-19.15l.44-11.17c-.63-7.58-2.13-19-3.33-25.36l-.11-4.62a113,113,0,0,1,.51-13.58l.45-4.22c.16-5.4.3-10.07.28-10.37s0-1,0-1.65.1-11.26.14-22.19l.49-10a178,178,0,0,1,3.44-24.38,109.2,109.2,0,0,1,7.26-23.27,25.67,25.67,0,0,1,13.55-13.25l2.59-1.17c2.46-1.37,5-2.75,5.59-3.07s6.42-2.91,11.32-4.84l5.13-.78,5.12-.78c5.46-.36,19.38-.89,30.92-1.18a311.81,311.81,0,0,1,38.54,1.82q14.46,2,21.75,7.49l4.86,3.67c5.1,6.7,10.1,14.16,11.11,16.58l.93,2.79.94,2.78c.62,2.53,1.76,8,2.53,12.22l-.13,3.12,0,2.4c.37,3,.7,5.74.73,6s.52,3.25.93,6l.13,2,.13,2c-.27,3-.52,5.87-.56,6.31s-.08,3.63-.1,7.08,1,12.89,1,13.71.37,3.54.39,4,.26,3.64.51,6l.32,2.26.31,1.9c.14,2.11.35,5.61.46,7.78s-.23,9.2-.33,10.79l-.21,1.09a21.26,21.26,0,0,0-.47,4.33Z" fill="#081a2b"/></svg>